<svg xmlns="http://www.w3.org/2000/svg" version="1.1" xmlns:xlink="http://www.w3.org/1999/xlink" width="1000" height="1000"><style>
    #light-icon {
      display: inline;
    }
    #dark-icon {
      display: none;
    }

    @media (prefers-color-scheme: dark) {
      #light-icon {
        display: none;
      }
      #dark-icon {
        display: inline;
      }
    }
  </style><g id="light-icon"><svg xmlns="http://www.w3.org/2000/svg" version="1.1" xmlns:xlink="http://www.w3.org/1999/xlink" width="1000" height="1000"><g><g transform="matrix(18.181818181818183,0,0,18.181818181818183,-5.684341886080802e-14,27.272727272727252)"><svg xmlns="http://www.w3.org/2000/svg" version="1.1" xmlns:xlink="http://www.w3.org/1999/xlink" width="55" height="52"><svg width="55" height="52" viewBox="0 0 55 52" fill="none" xmlns="http://www.w3.org/2000/svg">
<path d="M53.0186 15.5159C51.9891 12.4426 50.3401 9.73181 48.0675 7.39227C45.7969 5.05489 42.7559 3.21823 38.9573 1.88443C35.1522 0.554951 30.4557 -0.0730979 24.8593 0.00675719L0 0.358551L0.0539575 48.0925L9.4037 19.39L18.6865 18.8698L28.1982 5.24266L34.5932 19.118L47.6574 19.1267L36.8055 28.3337L40.3796 37.8667L3.6281 51.8003H25.5909C30.9737 51.7248 35.5191 50.9543 39.2271 49.4888C42.9372 48.0256 45.9351 46.0637 48.2185 43.6055C50.502 41.1494 52.1553 38.3415 53.1761 35.1818C54.197 32.0222 54.6848 28.7114 54.6352 25.2474C54.5855 21.7835 54.0459 18.5957 53.0164 15.5159H53.0186Z" fill="#949494"></path>
<path d="M16.5908 39.7878V39.7835L19.7959 28.7201L15.3282 25.6574V25.6553V25.6574L0.71875 51.5613L0.720908 51.5592L0.71875 51.5613L16.5908 39.7878Z" fill="#949494"></path>
<path d="M30.7256 21.3357L27.7317 12.5615L24.9852 21.418L15.7148 21.5484L23.3107 26.8911L20.1244 36.8472L27.86 30.094L35.5589 35.5144L32.5696 26.7493L40.0006 21.2054L30.7256 21.3357Z" fill="#949494"></path>
</svg></svg></g></g></svg></g><g id="dark-icon"><svg xmlns="http://www.w3.org/2000/svg" version="1.1" xmlns:xlink="http://www.w3.org/1999/xlink" width="1000" height="1000"><g clip-path="url(#SvgjsClipPath1160)"><rect width="1000" height="1000" fill="#ffffff"></rect><g transform="matrix(12.727272727272727,0,0,12.727272727272727,150,169.09090909090912)"><svg xmlns="http://www.w3.org/2000/svg" version="1.1" xmlns:xlink="http://www.w3.org/1999/xlink" width="55" height="52"><svg width="55" height="52" viewBox="0 0 55 52" fill="none" xmlns="http://www.w3.org/2000/svg">
<path d="M53.0186 15.5159C51.9891 12.4426 50.3401 9.73181 48.0675 7.39227C45.7969 5.05489 42.7559 3.21823 38.9573 1.88443C35.1522 0.554951 30.4557 -0.0730979 24.8593 0.00675719L0 0.358551L0.0539575 48.0925L9.4037 19.39L18.6865 18.8698L28.1982 5.24266L34.5932 19.118L47.6574 19.1267L36.8055 28.3337L40.3796 37.8667L3.6281 51.8003H25.5909C30.9737 51.7248 35.5191 50.9543 39.2271 49.4888C42.9372 48.0256 45.9351 46.0637 48.2185 43.6055C50.502 41.1494 52.1553 38.3415 53.1761 35.1818C54.197 32.0222 54.6848 28.7114 54.6352 25.2474C54.5855 21.7835 54.0459 18.5957 53.0164 15.5159H53.0186Z" fill="#949494"></path>
<path d="M16.5908 39.7878V39.7835L19.7959 28.7201L15.3282 25.6574V25.6553V25.6574L0.71875 51.5613L0.720908 51.5592L0.71875 51.5613L16.5908 39.7878Z" fill="#949494"></path>
<path d="M30.7256 21.3357L27.7317 12.5615L24.9852 21.418L15.7148 21.5484L23.3107 26.8911L20.1244 36.8472L27.86 30.094L35.5589 35.5144L32.5696 26.7493L40.0006 21.2054L30.7256 21.3357Z" fill="#949494"></path>
</svg></svg></g></g><defs><clipPath id="SvgjsClipPath1160"><rect width="1000" height="1000" x="0" y="0" rx="100" ry="100"></rect></clipPath></defs></svg></g></svg>