<svg version="1.2" xmlns="http://www.w3.org/2000/svg" viewBox="0 0 55 52" width="55" height="52">
	<title>mask-icon-svg</title>
	<style>
		.s0 { fill: #fafafa } 
	</style>
	<g id="Layer 1">
		<path class="s0" d="m53 15.5q-1.5-4.6-4.9-8.1-3.4-3.5-9.1-5.5-5.7-2-14.1-1.9l-24.9 0.4 0.1 47.7 9.3-28.7 9.3-0.5 9.5-13.7 6.4 13.9h13.1l-10.9 9.2 3.6 9.6-36.8 13.9h22q8.1-0.1 13.6-2.3 5.6-2.2 9-5.9 3.4-3.7 5-8.4 1.5-4.8 1.4-10c0-3.4-0.6-6.6-1.6-9.7z"/>
		<path class="s0" d="m16.6 39.8l3.2-11.1-4.5-3-14.6 25.9z"/>
		<path class="s0" d="m30.7 21.3l-3-8.7-2.7 8.8-9.3 0.1 7.6 5.4-3.2 9.9 7.8-6.7 7.7 5.4-3-8.8 7.4-5.5z"/>
	</g>
</svg>