<svg width="379" height="139" viewBox="0 0 379 139" fill="none" xmlns="http://www.w3.org/2000/svg">
<path d="M62.4883 0.149597H317.975L340.027 121.122H39.3127L62.4883 0.149597Z" fill="#F7F7F7"/>
<path d="M322.38 24.3466L317.975 0.149597H62.4883L57.799 24.5794L322.38 24.3466Z" fill="#A9A8A8"/>
<path d="M322.419 24.5664L318.001 0.330627L62.4495 0.343573L57.7601 24.8121L322.419 24.5664Z" fill="#AAA9A9"/>
<path d="M322.458 24.7863L318.04 0.498779L62.4108 0.52467L57.7214 25.0579L322.458 24.7863Z" fill="#ABAAAA"/>
<path d="M322.497 24.9933L318.066 0.679871L62.3719 0.718628L57.6697 25.2907L322.497 24.9933Z" fill="#ACABAB"/>
<path d="M322.535 25.2131L318.091 0.847961L62.3333 0.899664L57.631 25.5364L322.535 25.2131Z" fill="#ADACAC"/>
<path d="M322.574 25.4201L318.13 1.02899L62.3074 1.08077L57.5922 25.7692L322.574 25.4201Z" fill="#AEADAD"/>
<path d="M322.613 25.6399L318.156 1.21008L62.2687 1.27473L57.5405 26.0149L322.613 25.6399Z" fill="#AFAEAE"/>
<path d="M322.652 25.8597L318.195 1.37817L62.2298 1.45577L57.5017 26.2477L322.652 25.8597Z" fill="#B0AFAF"/>
<path d="M322.69 26.0667L318.221 1.55927L62.1911 1.63686L57.4501 26.4934L322.69 26.0667Z" fill="#B1B0B0"/>
<path d="M322.729 26.2865L318.259 1.72742L62.1653 1.83082L57.4114 26.7262L322.729 26.2865Z" fill="#B2B1B1"/>
<path d="M322.768 26.5063L318.285 1.90839L62.1265 2.01187L57.3726 26.959L322.768 26.5063Z" fill="#B3B2B2"/>
<path d="M322.807 26.7133L318.324 2.07654L62.0878 2.20591L57.3209 27.2047L322.807 26.7133Z" fill="#B4B3B3"/>
<path d="M322.845 26.9332L318.35 2.25763L62.049 2.387L57.2821 27.4376L322.845 26.9332Z" fill="#B5B4B4"/>
<path d="M322.884 27.153L318.389 2.42572L62.0232 2.56796L57.2434 27.6832L322.884 27.153Z" fill="#B6B5B5"/>
<path d="M322.936 27.3599L318.414 2.60681L61.9845 2.762L57.1918 27.916L322.936 27.3599Z" fill="#B7B6B6"/>
<path d="M322.975 27.5798L318.453 2.77496L61.9457 2.94309L57.153 28.1618L322.975 27.5798Z" fill="#B8B7B7"/>
<path d="M323.013 27.7867L318.479 2.95593L61.907 3.12406L57.1013 28.3945L323.013 27.7867Z" fill="#B9B8B8"/>
<path d="M323.052 28.0066L318.518 3.12408L61.881 3.31811L57.0625 28.6403L323.052 28.0066Z" fill="#BAB9B9"/>
<path d="M323.091 28.2264L318.544 3.30511L61.8423 3.49914L57.0238 28.873L323.091 28.2264Z" fill="#BBBABA"/>
<path d="M323.13 28.4333L318.569 3.47327L61.8036 3.6931L56.9722 29.1188L323.13 28.4333Z" fill="#BCBBBB"/>
<path d="M323.168 28.6532L318.608 3.65436L61.7648 3.87419L56.9333 29.3516L323.168 28.6532Z" fill="#BDBCBC"/>
<path d="M323.207 28.8731L318.634 3.82251L61.739 4.05529L56.8947 29.5844L323.207 28.8731Z" fill="#BDBDBD"/>
<path d="M323.246 29.0799L318.673 4.00354L61.7002 4.24918L56.8429 29.83L323.246 29.0799Z" fill="#BEBEBE"/>
<path d="M323.285 29.2999L318.699 4.18457L61.6615 4.43029L56.8042 30.0628L323.285 29.2999Z" fill="#BFBFBF"/>
<path d="M323.323 29.5197L318.737 4.35266L61.6227 4.61133L56.7654 30.3085L323.323 29.5197Z" fill="#C0C0C0"/>
<path d="M323.362 29.7266L318.763 4.53375L61.5969 4.80537L56.7137 30.5413L323.362 29.7266Z" fill="#C1C1C1"/>
<path d="M323.401 29.9465L318.802 4.7019L61.5581 4.98638L56.6749 30.7871L323.401 29.9465Z" fill="#C2C2C2"/>
<path d="M323.44 30.1534L318.828 4.883L61.5193 5.18042L56.6233 31.0199L323.44 30.1534Z" fill="#C3C3C3"/>
<path d="M323.478 30.3732L318.867 5.05109L61.4806 5.36146L56.5846 31.2655L323.478 30.3732Z" fill="#C4C4C4"/>
<path d="M323.517 30.5931L318.892 5.23212L61.4547 5.54249L56.5458 31.4984L323.517 30.5931Z" fill="#C5C5C5"/>
<path d="M323.556 30.8L318.931 5.40021L61.416 5.73647L56.4941 31.744L323.556 30.8Z" fill="#C6C6C6"/>
<path d="M323.595 31.0198L318.957 5.5813L61.3773 5.91756L56.4554 31.9768L323.595 31.0198Z" fill="#C7C7C7"/>
<path d="M323.633 31.2398L318.996 5.74945L61.3385 6.11152L56.4166 32.2097L323.633 31.2398Z" fill="#C8C8C8"/>
<path d="M323.672 31.4467L319.022 5.93054L61.3128 6.29262L56.365 32.4554L323.672 31.4467Z" fill="#C9C9C9"/>
<path d="M323.711 31.6665L319.06 6.09863L61.2739 6.47365L56.3262 32.6882L323.711 31.6665Z" fill="#CACACA"/>
<path d="M323.75 31.8735L319.086 6.27966L61.2352 6.66771L56.2745 32.9339L323.75 31.8735Z" fill="#CBCBCB"/>
<path d="M323.788 32.0932L319.112 6.44775L61.1964 6.84866L56.2357 33.1667L323.788 32.0932Z" fill="#CCCCCC"/>
<path d="M323.827 32.3131L319.151 6.62885L61.1577 7.02975L56.197 33.4124L323.827 32.3131Z" fill="#CDCDCD"/>
<path d="M323.866 32.5201L319.177 6.797L61.1319 7.2238L56.1454 33.6452L323.866 32.5201Z" fill="#CECECE"/>
<path d="M323.905 32.7399L319.215 6.97803L61.093 7.40475L56.1066 33.8909L323.905 32.7399Z" fill="#CFCFCF"/>
<path d="M323.943 32.9597L319.241 7.15906L61.0543 7.5988L56.0677 34.1237L323.943 32.9597Z" fill="#D0CFCF"/>
<path d="M323.982 33.1667L319.28 7.32721L61.0155 7.7799L56.0161 34.3694L323.982 33.1667Z" fill="#D1D0D0"/>
<path d="M324.034 33.3865L319.306 7.50824L60.9898 7.96093L55.9774 34.6022L324.034 33.3865Z" fill="#D2D1D1"/>
<path d="M324.073 33.6064L319.344 7.67639L60.9509 8.15489L55.9386 34.835L324.073 33.6064Z" fill="#D3D2D2"/>
<path d="M324.111 33.8133L319.37 7.85748L60.9122 8.33599L55.887 35.0807L324.111 33.8133Z" fill="#D4D3D3"/>
<path d="M324.15 34.0331L319.409 8.02557L60.8735 8.51702L55.8483 35.3135L324.15 34.0331Z" fill="#D5D4D4"/>
<path d="M324.189 34.24L319.435 8.20667L60.8476 8.71098L55.7965 35.5592L324.189 34.24Z" fill="#D6D5D5"/>
<path d="M324.228 34.46L319.474 8.37476L60.8089 8.89209L55.7578 35.792L324.228 34.46Z" fill="#D7D6D6"/>
<path d="M324.266 34.6798L319.5 8.55579L60.7701 9.08607L55.719 36.0377L324.266 34.6798Z" fill="#D8D7D7"/>
<path d="M324.305 34.8867L319.538 8.72394L60.7314 9.26709L55.6674 36.2705L324.305 34.8867Z" fill="#D9D8D8"/>
<path d="M324.344 35.1066L319.564 8.90503L60.7055 9.44818L55.6285 36.5162L324.344 35.1066Z" fill="#DAD9D9"/>
<path d="M324.383 35.3264L319.59 9.07312L60.6668 9.64216L55.5898 36.749L324.383 35.3264Z" fill="#DBDADA"/>
<path d="M324.422 35.5333L319.629 9.25421L60.6281 9.82325L55.5382 36.9947L324.422 35.5333Z" fill="#DCDBDB"/>
<path d="M324.46 35.7532L319.655 9.42224L60.5892 10.0042L55.4994 37.2275L324.46 35.7532Z" fill="#DDDCDC"/>
<path d="M324.499 35.9731L319.693 9.60333L60.5634 10.1983L55.4478 37.4603L324.499 35.9731Z" fill="#DEDDDD"/>
<path d="M324.538 36.18L319.719 9.77148L60.5247 10.3794L55.4091 37.7061L324.538 36.18Z" fill="#DFDEDE"/>
<path d="M324.577 36.3999L319.758 9.95258L60.4859 10.5733L55.3702 37.9389L324.577 36.3999Z" fill="#E0DFDF"/>
<path d="M324.615 36.6067L319.784 10.1207L60.4472 10.7544L55.3186 38.1846L324.615 36.6067Z" fill="#E1E0E0"/>
<path d="M324.654 36.8266L319.823 10.3018L60.4213 10.9354L55.2798 38.4174L324.654 36.8266Z" fill="#E2E1E1"/>
<path d="M324.693 37.0465L319.848 10.4827L60.3826 11.1294L55.2411 38.663L324.693 37.0465Z" fill="#E3E2E2"/>
<path d="M324.732 37.2534L319.887 10.6509L60.3438 11.3105L55.1893 38.8958L324.732 37.2534Z" fill="#E3E3E3"/>
<path d="M324.77 37.4732L319.913 10.832L60.3051 11.4915L55.1506 39.1416L324.77 37.4732Z" fill="#E4E4E4"/>
<path d="M324.809 37.6932L319.952 11.0001L60.2792 11.6855L55.1118 39.3744L324.809 37.6932Z" fill="#E5E5E5"/>
<path d="M324.848 37.9L319.978 11.1812L60.2405 11.8665L55.0602 39.6201L324.848 37.9Z" fill="#E6E6E6"/>
<path d="M324.887 38.1199L320.016 11.3493L60.2016 12.0606L55.0214 39.8529L324.887 38.1199Z" fill="#E7E7E7"/>
<path d="M324.925 38.3268L320.042 11.5303L60.1629 12.2416L54.9697 40.0856L324.925 38.3268Z" fill="#E8E8E8"/>
<path d="M324.964 38.5466L320.081 11.6984L60.1371 12.4227L54.931 40.3314L324.964 38.5466Z" fill="#E9E9E9"/>
<path d="M325.003 38.7665L320.107 11.8795L60.0983 12.6167L54.8922 40.5642L325.003 38.7665Z" fill="#EAEAEA"/>
<path d="M325.042 38.9734L320.133 12.0476L60.0596 12.7977L54.8406 40.8098L325.042 38.9734Z" fill="#EBEBEB"/>
<path d="M325.08 39.1933L320.171 12.2287L60.0209 12.9917L54.8019 41.0426L325.08 39.1933Z" fill="#ECECEC"/>
<path d="M325.132 39.4131L320.197 12.3969L59.995 13.1728L54.7631 41.2884L325.132 39.4131Z" fill="#EDEDED"/>
<path d="M325.171 39.6201L320.236 12.5778L59.9563 13.3538L54.7114 41.5211L325.171 39.6201Z" fill="#EEEEEE"/>
<path d="M325.209 39.8399L320.262 12.746L59.9175 13.5478L54.6726 41.7669L325.209 39.8399Z" fill="#EFEFEF"/>
<path d="M325.248 40.0598L320.301 12.9271L59.8788 13.7289L54.621 41.9997L325.248 40.0598Z" fill="#F0F0F0"/>
<path d="M325.287 40.2667L320.326 13.0952L59.8399 13.9099L54.5822 42.2453L325.287 40.2667Z" fill="#F1F1F1"/>
<path d="M325.326 40.4865L320.365 13.2762L59.8142 14.104L54.5435 42.4782L325.326 40.4865Z" fill="#F2F2F2"/>
<path d="M325.365 40.6935L320.391 13.4573L59.7754 14.285L54.4918 42.711L325.365 40.6935Z" fill="#F3F3F3"/>
<path d="M325.403 40.9133L320.43 13.6254L59.7367 14.479L54.453 42.9567L325.403 40.9133Z" fill="#F4F4F4"/>
<path d="M325.442 41.1332L320.456 13.8065L59.698 14.6601L54.4143 43.1895L325.442 41.1332Z" fill="#F5F5F5"/>
<path d="M325.481 41.3402L320.494 13.9746L59.6721 14.8411L54.3627 43.4353L325.481 41.3402Z" fill="#F6F6F6"/>
<path d="M325.52 41.56L320.52 14.1556L59.6333 15.0351L54.3239 43.668L325.52 41.56Z" fill="#F7F7F7"/>
<path d="M42.6715 103.611L39.3127 121.122H340.027L334.369 102.512L42.6715 103.611Z" fill="#C4C4C4"/>
<path d="M42.7102 103.404L39.3385 120.992L339.988 120.979L334.369 102.331L42.7102 103.404Z" fill="#C5C5C5"/>
<path d="M42.749 103.184L39.3644 120.876L339.962 120.837L334.382 102.162L42.749 103.184Z" fill="#C6C6C6"/>
<path d="M42.7878 102.977L39.3773 120.747L339.936 120.682L334.395 101.981L42.7878 102.977Z" fill="#C7C7C7"/>
<path d="M42.8264 102.757L39.4031 120.63L339.911 120.54L334.407 101.8L42.8264 102.757Z" fill="#C8C8C8"/>
<path d="M42.8653 102.55L39.429 120.501L339.885 120.398L334.42 101.632L42.8653 102.55Z" fill="#C9C9C9"/>
<path d="M42.917 102.331L39.4548 120.385L339.859 120.255L334.433 101.451L42.917 102.331Z" fill="#CACACA"/>
<path d="M42.9556 102.124L39.4806 120.255L339.833 120.113L334.446 101.27L42.9556 102.124Z" fill="#CBCBCB"/>
<path d="M42.9944 101.904L39.5065 120.139L339.807 119.971L334.459 101.102L42.9944 101.904Z" fill="#CCCCCC"/>
<path d="M43.0332 101.619L39.5194 119.945L339.781 119.751L334.459 100.856L43.0332 101.619Z" fill="#CDCDCD"/>
<path d="M43.072 101.399L39.5453 119.816L339.756 119.609L334.472 100.662L43.072 101.399Z" fill="#CECECE"/>
<path d="M43.1107 101.18L39.571 119.686L339.73 119.453L334.485 100.481L43.1107 101.18Z" fill="#CFCFCF"/>
<path d="M43.1624 100.96L39.5969 119.544L339.704 119.298L334.498 100.3L43.1624 100.96Z" fill="#D0D0D0"/>
<path d="M43.2012 100.727L39.6228 119.415L339.678 119.143L334.511 100.106L43.2012 100.727Z" fill="#D1D1D1"/>
<path d="M43.2399 100.507L39.6486 119.285L339.652 119.001L334.524 99.9251L43.2399 100.507Z" fill="#D2D2D2"/>
<path d="M43.2786 100.287L39.6615 119.156L339.626 118.846L334.537 99.744L43.2786 100.287Z" fill="#D3D3D3"/>
<path d="M43.3174 100.067L39.6874 119.027L339.601 118.69L334.55 99.5629L43.3174 100.067Z" fill="#D4D4D4"/>
<path d="M43.3562 99.8475L39.7133 118.897L339.575 118.548L334.55 99.369L43.3562 99.8475Z" fill="#D5D5D5"/>
<path d="M43.4078 99.6276L39.739 118.768L339.549 118.393L334.562 99.1879L43.4078 99.6276Z" fill="#D6D6D6"/>
<path d="M43.4466 99.3948L39.7649 118.639L339.523 118.238L334.575 99.0068L43.4466 99.3948Z" fill="#D7D7D7"/>
<path d="M43.4854 99.175L39.7778 118.509L339.497 118.083L334.588 98.8129L43.4854 99.175Z" fill="#D8D8D8"/>
<path d="M43.5241 98.9552L39.8036 118.367L339.471 117.94L334.601 98.6318L43.5241 98.9552Z" fill="#D9D9D9"/>
<path d="M43.5629 98.7353L39.8295 118.238L339.446 117.785L334.614 98.4507L43.5629 98.7353Z" fill="#DADADA"/>
<path d="M43.6015 98.5154L39.8552 118.108L339.42 117.63L334.627 98.2697L43.6015 98.5154Z" fill="#DBDBDB"/>
<path d="M43.6533 98.2956L39.8811 117.979L339.394 117.475L334.64 98.0757L43.6533 98.2956Z" fill="#DCDCDC"/>
<path d="M43.6921 98.0757L39.907 117.85L339.368 117.332L334.64 97.8947L43.6921 98.0757Z" fill="#DDDDDD"/>
<path d="M43.7307 97.8429L39.9198 117.72L339.342 117.177L334.653 97.7136L43.7307 97.8429Z" fill="#DDDDDD"/>
<path d="M43.7695 97.6231L39.9457 117.591L339.316 117.022L334.666 97.5197L43.7695 97.6231Z" fill="#DEDEDE"/>
<path d="M43.8083 97.4032L39.9716 117.462L339.291 116.88L334.679 97.3386L43.8083 97.4032Z" fill="#DFDFDF"/>
<path d="M43.8471 97.1834L39.9974 117.332L339.265 116.725L334.692 97.1575L43.8471 97.1834Z" fill="#E0E0E0"/>
<path d="M43.8987 96.9634L40.0232 117.203L339.239 116.582L334.704 96.9764L43.8987 96.9634Z" fill="#E1E1E1"/>
<path d="M43.9375 96.7695L40.0361 117.087L339.213 116.44L334.717 96.8083L43.9375 96.7695Z" fill="#E2E2E2"/>
<path d="M43.9763 96.5626L40.062 116.983L339.187 116.311L334.73 96.6402L43.9763 96.5626Z" fill="#E3E3E3"/>
<path d="M44.015 96.3557L40.0878 116.867L339.161 116.181L334.743 96.4721L44.015 96.3557Z" fill="#E4E4E4"/>
<path d="M44.0537 96.1488L40.1136 116.751L339.135 116.039L334.743 96.3169L44.0537 96.1488Z" fill="#E5E5E5"/>
<path d="M44.1055 95.9548L40.1395 116.634L339.11 115.91L334.756 96.1488L44.1055 95.9548Z" fill="#E6E6E6"/>
<path d="M44.1442 95.7478L40.1653 116.531L339.084 115.781L334.769 95.9807L44.1442 95.7478Z" fill="#E7E7E7"/>
<path d="M44.1829 95.5409L40.1782 116.414L339.058 115.638L334.782 95.8125L44.1829 95.5409Z" fill="#E8E8E8"/>
<path d="M44.2217 95.3469L40.2041 116.298L339.019 115.509L334.795 95.6444L44.2217 95.3469Z" fill="#E9E9E9"/>
<path d="M44.2605 95.14L40.23 116.194L338.993 115.38L334.808 95.4763L44.2605 95.14Z" fill="#EAEAEA"/>
<path d="M44.2992 94.9331L40.2557 116.078L338.968 115.25L334.821 95.3081L44.2992 94.9331Z" fill="#EBEBEB"/>
<path d="M44.3509 94.7261L40.2816 115.962L338.942 115.108L334.834 95.1529L44.3509 94.7261Z" fill="#ECECEC"/>
<path d="M44.3897 94.5322L40.2946 115.858L338.916 114.979L334.834 94.9848L44.3897 94.5322Z" fill="#EDEDED"/>
<path d="M44.4283 94.3253L40.3203 115.742L338.89 114.849L334.847 94.8167L44.4283 94.3253Z" fill="#EEEEEE"/>
<path d="M44.4672 94.1183L40.3462 115.625L338.864 114.707L334.86 94.6486L44.4672 94.1183Z" fill="#EFEFEF"/>
<path d="M44.5058 93.9243L40.3719 115.522L338.838 114.578L334.872 94.4804L44.5058 93.9243Z" fill="#F0F0F0"/>
<path d="M44.5446 93.7821L40.3978 115.47L338.812 114.513L334.885 94.377L44.5446 93.7821Z" fill="#F1F1F1"/>
<path d="M44.5964 93.5623L40.4237 115.341L338.787 114.371L334.898 94.2089L44.5964 93.5623Z" fill="#F2F2F2"/>
<path d="M44.6351 93.3553L40.4366 115.224L338.761 114.229L334.911 94.0278L44.6351 93.3553Z" fill="#F3F3F3"/>
<path d="M44.6738 93.1354L40.4624 115.095L338.735 114.073L334.924 93.8467L44.6738 93.1354Z" fill="#F4F4F4"/>
<path d="M44.7126 92.9285L40.4883 114.979L338.709 113.931L334.924 93.6786L44.7126 92.9285Z" fill="#F5F5F5"/>
<path d="M44.7514 92.7086L40.5142 114.849L338.683 113.789L334.937 93.4975L44.7514 92.7086Z" fill="#F6F6F6"/>
<path d="M44.7901 92.5018L40.5399 114.733L338.657 113.647L334.95 93.3165L44.7901 92.5018Z" fill="#F7F7F7"/>
<path d="M376.521 127.64L340.014 121.109H39.3127L2.80531 127.64C1.68141 127.847 0.867554 128.817 0.867554 129.968V137.262C0.867554 138.219 1.64264 138.982 2.58568 138.982H376.741C377.697 138.982 378.459 138.206 378.459 137.262V129.968C378.459 128.83 377.645 127.847 376.521 127.64Z" fill="#F6F4F4"/>
</svg>
