<svg width="1149" height="676" viewBox="0 0 1149 676" fill="none" xmlns="http://www.w3.org/2000/svg">
<path d="M1120.09 0H28.9243C12.9442 0 0 14.0449 0 31.3876V644.124C0 661.454 12.9442 675.512 28.9243 675.512H1120.09C1136.06 675.512 1149.01 661.467 1149.01 644.124V31.3876C1149.01 14.0578 1136.07 0 1120.09 0Z" fill="url(#paint0_linear_393_508)"/>
<path d="M1115.64 5.40588H32.6318C16.8068 5.40588 3.96594 19.2438 3.96594 36.2891V639.21C3.96594 656.268 16.7939 670.093 32.6318 670.093H1115.64C1131.48 670.093 1144.31 656.268 1144.31 639.21V36.2891C1144.31 19.2309 1131.48 5.40588 1115.64 5.40588Z" fill="#1E1E1E"/>
<path d="M584.066 30.3012C589.21 30.3012 593.38 26.1265 593.38 20.9768C593.38 15.827 589.21 11.6523 584.066 11.6523C578.922 11.6523 574.752 15.827 574.752 20.9768C574.752 26.1265 578.922 30.3012 584.066 30.3012Z" stroke="#262626" strokeWidth="0.07" stroke-miterlimit="10"/>
<path d="M1122.87 30.9995H27.7358V650.435H1122.87V30.9995Z" fill="url(#paint1_radial_393_508)"/>
<defs>
<linearGradient id="paint0_linear_393_508" x1="574.506" y1="675.512" x2="574.506" y2="0" gradientUnits="userSpaceOnUse">
<stop stopColor="#EAEAEB"/>
<stop offset="0.51" stopColor="#AAAAAE"/>
<stop offset="0.66" stopColor="#C6C6C8"/>
<stop offset="1" stopColor="white"/>
</linearGradient>
<radialGradient id="paint1_radial_393_508" cx="0" cy="0" r="1" gradientUnits="userSpaceOnUse" gradientTransform="translate(116.496 64.1216) rotate(27.5359) scale(1159.43 580.081)">
<stop offset="0.625679" stop-opacity="0"/>
<stop offset="1" stopColor="white" stop-opacity="0.13"/>
</radialGradient>
</defs>
</svg>
