<svg width="204" height="64" viewBox="0 0 204 64" fill="none" xmlns="http://www.w3.org/2000/svg">
<path d="M7.98588 28.8312V0H0V28.8312C0 48.9787 14.0586 63.7785 34.802 63.7785H39.4882V55.7593H34.802C19.9917 55.7593 7.99038 44.178 7.99038 28.8357L7.98588 28.8312Z" fill="#05BEF1"/>
<path d="M18.5512 29.8709V0H10.5653V29.8709C10.5653 42.8445 21.0361 53.3589 33.9557 53.3589H39.4882V45.3397H33.9557C25.4477 45.3397 18.5512 38.4145 18.5512 29.8709Z" fill="#05BEF1"/>
<path d="M33.276 34.9202C31.0702 34.9202 29.2831 33.1256 29.2831 30.9106V0H21.2972V30.9106C21.2972 37.5556 26.6631 42.9394 33.276 42.9394H39.4837V34.9202H33.276Z" fill="#05BEF1"/>
<path d="M113.022 38.9298C113.022 43.5723 116.768 47.3332 121.391 47.3332C126.014 47.3332 129.759 43.5723 129.759 38.9298C129.759 34.2873 126.014 30.5263 121.391 30.5263C116.768 30.5263 113.022 34.2873 113.022 38.9298ZM145.961 38.9298C145.961 52.5588 134.959 63.6022 121.391 63.6022C107.823 63.6022 96.8209 52.5543 96.8209 38.9298C96.8209 25.3053 107.823 14.2574 121.391 14.2574C134.959 14.2574 145.961 25.3053 145.961 38.9298Z" fill="#131313"/>
<path d="M35.6618 0H53.6818L70.3378 42.2207L88.0832 0H105.559L79.3456 63.6067H61.3256L35.6618 0Z" fill="#131313"/>
<path d="M168.896 0H150.876V63.6067H168.896V0Z" fill="#131313"/>
<path d="M204 28.5148V10.4196H193.079V0H175.604V38.2201C175.604 52.4594 187.096 64 201.277 64H204V45.6697H201.277C197.18 45.6697 193.858 42.3337 193.858 38.2201V28.5148H204Z" fill="#131313"/>
</svg>
