<svg width="82" height="81" viewBox="0 0 82 81" fill="none" xmlns="http://www.w3.org/2000/svg">
    <path fill-rule="evenodd" clip-rule="evenodd" d="M65.1598 22.216L80.0822 37.0426C82.0766 39.0369 82.0766 42.2737 80.0822 44.2743C72.3292 51.9776 54.1748 70.0154 45.5561 78.5597C44.3184 79.7958 42.6383 80.4903 40.8812 80.4903C39.1241 80.4903 37.4375 79.7958 36.1935 78.5597C27.4721 69.8944 8.94576 51.487 1.37874 43.9685C0.493781 43.0892 0 41.8978 0 40.6617C0 39.4256 0.493781 38.2277 1.37874 37.3548C9.39465 29.384 29.6717 9.23716 37.6171 1.34281C39.4191 -0.447602 42.3433 -0.447602 44.1453 1.34281L54.9122 12.047C53.8926 12.9263 53.1359 14.2452 53.6104 16.1885C54.3671 19.266 57.7467 19.266 58.5034 19.0812C58.2212 19.7502 57.8942 20.9353 58.1571 21.7127C59.523 25.8669 64.2877 24.102 65.0892 22.4836C65.0892 22.4518 65.1085 22.3562 65.1534 22.2097L65.1598 22.216Z" fill="#3477E3"/>
    <path fill-rule="evenodd" clip-rule="evenodd" d="M32.8717 75.0453L13.0527 54.3992C14.463 51.3896 17.4141 49.3185 20.8125 49.3185C21.7631 49.3185 22.6764 49.4803 23.5276 49.7781V20.6664H37.8482C41.9239 20.6664 45.4466 21.5466 48.4163 23.3006C51.3861 25.061 53.6662 27.5333 55.2567 30.7241C56.8534 33.9149 57.6486 37.591 57.6486 41.7397C57.6486 45.8883 56.8534 49.5709 55.2567 52.7876C53.6662 55.9978 51.3736 58.5025 48.3915 60.3017C45.6392 61.9586 42.4395 62.8453 38.7926 62.9812L38.4509 63.3372C39.2275 64.541 39.6872 65.9907 39.6872 67.557C39.6872 71.5891 36.6616 74.8835 32.8717 75.0517V75.0453ZM45.3844 50.6583C43.4025 52.7747 40.6192 53.8296 37.0406 53.8296H32.6978V29.6433H37.0406C40.6192 29.6433 43.3963 30.6982 45.3844 32.8146C47.3726 34.931 48.3604 37.9017 48.3604 41.7332C48.3604 45.5647 47.3663 48.5354 45.3844 50.6518V50.6583Z" fill="white"/>
    <path d="M61.9991 62.8852L45.4193 78.5797C44.1342 79.8029 42.3897 80.4902 40.5652 80.4902C38.7408 80.4902 36.9896 79.8029 35.6978 78.5797L28.3668 71.6373C28.3068 71.24 28.2802 70.8365 28.2802 70.4203C28.2802 65.5209 32.4351 61.5421 37.5556 61.5421C38.4212 61.5421 39.2602 61.6556 40.0592 61.87C41.4974 58.7424 44.7601 56.5607 48.5555 56.5607C52.3509 56.5607 55.7268 58.8244 57.1251 62.0339C57.691 61.7186 58.3436 61.5421 59.0427 61.5421C60.2346 61.5421 61.3 62.0654 61.9991 62.8852Z" fill="#DCDCDC"/>
</svg>
