<svg width="312" height="81" viewBox="0 0 312 81" fill="none" xmlns="http://www.w3.org/2000/svg">
    <path fill-rule="evenodd" clip-rule="evenodd" d="M65.1598 22.216L80.0822 37.0426C82.0766 39.0369 82.0766 42.2737 80.0822 44.2743C72.3292 51.9776 54.1748 70.0154 45.5561 78.5597C44.3184 79.7958 42.6383 80.4903 40.8812 80.4903C39.1241 80.4903 37.4375 79.7958 36.1935 78.5597C27.4721 69.8944 8.94576 51.487 1.37874 43.9685C0.493781 43.0892 0 41.8978 0 40.6617C0 39.4256 0.493781 38.2277 1.37874 37.3548C9.39465 29.384 29.6717 9.23716 37.6171 1.34281C39.4191 -0.447602 42.3433 -0.447602 44.1453 1.34281L54.9122 12.047C53.8926 12.9263 53.1359 14.2452 53.6104 16.1885C54.3671 19.266 57.7467 19.266 58.5034 19.0812C58.2212 19.7502 57.8942 20.9353 58.1571 21.7127C59.523 25.8669 64.2877 24.102 65.0892 22.4836C65.0892 22.4518 65.1085 22.3562 65.1534 22.2097L65.1598 22.216Z" fill="#3477E3"/>
    <path fill-rule="evenodd" clip-rule="evenodd" d="M32.8698 75.0454L13.0508 54.3993C14.4611 51.3897 17.4122 49.3186 20.8107 49.3186C21.7612 49.3186 22.6745 49.4804 23.5257 49.7782V20.6665H37.8463C41.922 20.6665 45.4447 21.5467 48.4144 23.3007C51.3842 25.0611 53.6643 27.5334 55.2548 30.7242C56.8515 33.915 57.6467 37.5911 57.6467 41.7398C57.6467 45.8884 56.8515 49.571 55.2548 52.7877C53.6643 55.9979 51.3717 58.5026 48.3896 60.3018C45.6373 61.9587 42.4376 62.8454 38.7907 62.9813L38.449 63.3373C39.2256 64.5411 39.6853 65.9908 39.6853 67.5571C39.6853 71.5892 36.6597 74.8835 32.8698 75.0518V75.0454ZM45.3825 50.6584C43.4006 52.7747 40.6173 53.8297 37.0387 53.8297H32.6959V29.6433H37.0387C40.6173 29.6433 43.3944 30.6983 45.3825 32.8147C47.3707 34.9311 48.3585 37.9018 48.3585 41.7333C48.3585 45.5648 47.3644 48.5355 45.3825 50.6519V50.6584Z" fill="white"/>
    <path d="M62.0002 62.885L45.4204 78.5795C44.1353 79.8028 42.3907 80.4901 40.5663 80.4901C38.7418 80.4901 36.9906 79.8028 35.6989 78.5795L28.3678 71.6371C28.3079 71.2399 28.2812 70.8363 28.2812 70.4201C28.2812 65.5207 32.4362 61.5419 37.5566 61.5419C38.4222 61.5419 39.2612 61.6554 40.0602 61.8698C41.4985 58.7423 44.7612 56.5605 48.5565 56.5605C52.3519 56.5605 55.7278 58.8242 57.1261 62.0338C57.6921 61.7185 58.3446 61.5419 59.0438 61.5419C60.2356 61.5419 61.301 62.0653 62.0002 62.885Z" fill="#DCDCDC"/>
    <path d="M107.599 29.4862C109.735 29.4862 111.519 29.741 112.949 30.2506C114.38 30.7602 115.517 31.456 116.36 32.338C117.222 33.2004 117.83 34.2 118.183 35.3368C118.555 36.4736 118.741 37.6691 118.741 38.9235C118.741 40.1779 118.535 41.3833 118.124 42.5397C117.732 43.6961 117.095 44.7251 116.213 45.6266C115.35 46.5086 114.204 47.2142 112.773 47.7434C111.362 48.253 109.637 48.5078 107.599 48.5078H96.7208V29.4862H107.599ZM100.631 45.1563H107.51C108.922 45.1563 110.088 44.9897 111.009 44.6565C111.95 44.3037 112.695 43.8333 113.243 43.2453C113.792 42.6573 114.184 41.9909 114.419 41.2461C114.655 40.5013 114.772 39.7271 114.772 38.9235C114.772 38.1199 114.655 37.3555 114.419 36.6304C114.184 35.9052 113.792 35.2584 113.243 34.69C112.695 34.1216 111.95 33.6708 111.009 33.3376C110.088 33.0044 108.922 32.8378 107.51 32.8378H100.631V45.1563ZM122.061 33.8962H125.882V48.5078H122.061V33.8962ZM131.498 37.042C130.4 37.042 129.45 37.2576 128.646 37.6887C127.842 38.1003 127.196 38.6099 126.706 39.2175C126.216 39.8251 125.873 40.4131 125.677 40.9815L125.647 39.3645C125.667 39.1293 125.745 38.7863 125.882 38.3355C126.02 37.8651 126.225 37.3653 126.5 36.8362C126.774 36.2874 127.137 35.768 127.588 35.278C128.038 34.7684 128.587 34.3568 129.234 34.0432C129.881 33.7296 130.635 33.5728 131.498 33.5728V37.042ZM147.179 43.6569H150.883C150.726 44.6565 150.305 45.5482 149.619 46.3322C148.952 47.1162 148.041 47.7336 146.885 48.1844C145.728 48.6352 144.317 48.8606 142.651 48.8606C140.789 48.8606 139.143 48.5666 137.712 47.9786C136.281 47.371 135.164 46.4988 134.36 45.3621C133.557 44.2253 133.155 42.8533 133.155 41.2461C133.155 39.6389 133.547 38.2669 134.331 37.1302C135.115 35.9738 136.203 35.0918 137.594 34.4842C139.006 33.8766 140.652 33.5728 142.533 33.5728C144.454 33.5728 146.052 33.8766 147.326 34.4842C148.6 35.0918 149.54 36.013 150.148 37.2478C150.775 38.4629 151.04 40.0211 150.942 41.9223H137.006C137.104 42.6671 137.379 43.3433 137.83 43.9509C138.3 44.5585 138.927 45.0387 139.711 45.3915C140.515 45.7442 141.465 45.9206 142.563 45.9206C143.778 45.9206 144.787 45.7148 145.591 45.3033C146.414 44.8721 146.943 44.3233 147.179 43.6569ZM142.357 36.4834C140.946 36.4834 139.799 36.797 138.917 37.4241C138.035 38.0317 137.467 38.7863 137.212 39.6879H147.149C147.051 38.7079 146.581 37.9337 145.738 37.3653C144.915 36.7774 143.788 36.4834 142.357 36.4834ZM160.9 48.8312C159.45 48.8312 158.127 48.5176 156.931 47.8904C155.756 47.2436 154.815 46.3518 154.109 45.2151C153.423 44.0587 153.08 42.7259 153.08 41.2167C153.08 39.6683 153.433 38.3257 154.139 37.189C154.844 36.0522 155.795 35.1702 156.99 34.543C158.205 33.8962 159.577 33.5728 161.106 33.5728C162.792 33.5728 164.144 33.9158 165.163 34.6018C166.202 35.2682 166.957 36.1796 167.427 37.3359C167.898 38.4923 168.133 39.7859 168.133 41.2167C168.133 42.0791 167.996 42.9611 167.721 43.8627C167.447 44.7447 167.025 45.5678 166.457 46.3322C165.889 47.077 165.144 47.6846 164.223 48.155C163.301 48.6058 162.194 48.8312 160.9 48.8312ZM162.135 45.8912C163.292 45.8912 164.291 45.6952 165.134 45.3033C165.977 44.9113 166.624 44.3625 167.074 43.6569C167.525 42.9513 167.751 42.1379 167.751 41.2167C167.751 40.2171 167.515 39.3743 167.045 38.6883C166.594 37.9827 165.947 37.4535 165.105 37.1008C164.281 36.7284 163.292 36.5422 162.135 36.5422C160.508 36.5422 159.244 36.9734 158.343 37.8357C157.441 38.6785 156.99 39.8055 156.99 41.2167C156.99 42.1575 157.206 42.9807 157.637 43.6863C158.068 44.3723 158.666 44.9113 159.43 45.3033C160.214 45.6952 161.116 45.8912 162.135 45.8912ZM167.751 33.8962H171.573V48.5078H168.015C168.015 48.5078 167.986 48.3216 167.927 47.9492C167.888 47.5572 167.849 47.0672 167.809 46.4792C167.77 45.8912 167.751 45.3131 167.751 44.7447V33.8962ZM175.032 33.8962H178.854V48.5078H175.032V33.8962ZM185.645 33.5728C186.546 33.5728 187.379 33.6904 188.144 33.9256C188.908 34.1608 189.575 34.5234 190.143 35.0134C190.711 35.5034 191.152 36.1306 191.466 36.895C191.78 37.6397 191.936 38.5315 191.936 39.5703V48.5078H188.114V40.2465C188.114 39.0117 187.811 38.1101 187.203 37.5417C186.615 36.9538 185.645 36.6598 184.292 36.6598C183.273 36.6598 182.352 36.8558 181.529 37.2478C180.706 37.6397 180.039 38.1395 179.53 38.7471C179.02 39.3351 178.726 39.9525 178.648 40.5993L178.618 39.0999C178.716 38.4139 178.942 37.7475 179.295 37.1008C179.647 36.454 180.118 35.866 180.706 35.3368C181.313 34.788 182.029 34.3568 182.852 34.0432C183.675 33.7296 184.606 33.5728 185.645 33.5728ZM198.375 33.5728C199.276 33.5728 200.109 33.6904 200.874 33.9256C201.638 34.1608 202.305 34.5234 202.873 35.0134C203.441 35.5034 203.882 36.1306 204.196 36.895C204.529 37.6397 204.696 38.5315 204.696 39.5703V48.5078H200.874V40.2465C200.874 39.0117 200.57 38.1101 199.962 37.5417C199.355 36.9538 198.375 36.6598 197.022 36.6598C196.003 36.6598 195.082 36.8558 194.259 37.2478C193.436 37.6397 192.769 38.1395 192.26 38.7471C191.75 39.3351 191.466 39.9525 191.407 40.5993L191.348 39.0117C191.446 38.3649 191.682 37.7181 192.054 37.0714C192.426 36.4246 192.916 35.8366 193.524 35.3074C194.132 34.7782 194.837 34.3568 195.641 34.0432C196.464 33.7296 197.375 33.5728 198.375 33.5728ZM207.576 43.6569H211.104C211.319 44.3233 211.76 44.8721 212.427 45.3033C213.113 45.7148 214.004 45.9206 215.102 45.9206C215.847 45.9206 216.425 45.852 216.836 45.7148C217.248 45.5776 217.532 45.3817 217.689 45.1269C217.846 44.8525 217.924 44.5487 217.924 44.2155C217.924 43.8039 217.797 43.4903 217.542 43.2747C217.287 43.0395 216.895 42.8533 216.366 42.7161C215.837 42.5789 215.161 42.4515 214.337 42.3339C213.514 42.1967 212.721 42.0301 211.956 41.8341C211.192 41.6381 210.516 41.3833 209.928 41.0697C209.34 40.7365 208.869 40.3249 208.516 39.8349C208.183 39.3253 208.017 38.7079 208.017 37.9827C208.017 37.2772 208.183 36.65 208.516 36.1012C208.869 35.5524 209.349 35.0918 209.957 34.7194C210.584 34.347 211.309 34.0628 212.133 33.8668C212.975 33.6708 213.877 33.5728 214.837 33.5728C216.288 33.5728 217.493 33.7884 218.453 34.2196C219.414 34.6312 220.129 35.2192 220.6 35.9836C221.09 36.7284 221.335 37.5907 221.335 38.5707H217.954C217.797 37.8455 217.483 37.3261 217.013 37.0126C216.542 36.6794 215.817 36.5128 214.837 36.5128C213.877 36.5128 213.152 36.6598 212.662 36.9538C212.172 37.2478 211.927 37.6495 211.927 38.1591C211.927 38.5707 212.074 38.8941 212.368 39.1293C212.681 39.3449 213.132 39.5213 213.72 39.6585C214.328 39.7957 215.082 39.9427 215.984 40.0995C216.748 40.2563 217.473 40.4327 218.159 40.6287C218.865 40.8247 219.492 41.0795 220.041 41.3931C220.59 41.6871 221.021 42.0889 221.335 42.5985C221.668 43.0885 221.834 43.7157 221.834 44.4801C221.834 45.4209 221.56 46.2146 221.011 46.8614C220.482 47.5082 219.718 48.008 218.718 48.3608C217.718 48.694 216.523 48.8606 215.131 48.8606C213.897 48.8606 212.828 48.7332 211.927 48.4784C211.045 48.204 210.31 47.861 209.722 47.4494C209.134 47.0182 208.673 46.5674 208.34 46.097C208.026 45.607 207.811 45.1465 207.693 44.7153C207.576 44.2841 207.536 43.9313 207.576 43.6569ZM225.258 48.5078V29.4862H236.224C238.772 29.4862 240.703 29.9174 242.016 30.7798C243.349 31.6226 244.015 32.8868 244.015 34.5724C244.015 35.6504 243.75 36.503 243.221 37.1302C242.692 37.7377 241.937 38.1885 240.957 38.4825C239.997 38.7765 238.86 38.9627 237.547 39.0411L237.665 38.8353C238.625 38.8549 239.527 38.9235 240.369 39.0411C241.232 39.1587 241.986 39.3743 242.633 39.6879C243.28 40.0015 243.79 40.4425 244.162 41.0109C244.534 41.5597 244.721 42.2849 244.721 43.1865C244.721 44.3625 244.407 45.3425 243.78 46.1264C243.153 46.8908 242.28 47.469 241.163 47.861C240.046 48.253 238.753 48.4686 237.283 48.5078H225.258ZM229.168 45.2739H236.871C238.106 45.2739 239.056 45.0779 239.723 44.6859C240.389 44.2743 240.722 43.6275 240.722 42.7455C240.722 42.0987 240.526 41.6283 240.134 41.3343C239.742 41.0403 239.223 40.8639 238.576 40.8051C237.929 40.7267 237.234 40.6875 236.489 40.6875H229.168V45.2739ZM229.168 37.5417H236.077C237.312 37.5417 238.263 37.3653 238.929 37.0126C239.595 36.6402 239.929 36.013 239.929 35.131C239.929 34.249 239.595 33.6316 238.929 33.2788C238.263 32.9064 237.381 32.7202 236.283 32.7202H229.168V37.5417ZM266.729 29.4862L258.38 42.5103V48.5078H254.44V42.5103L246.091 29.4862H250.618L257.645 40.8639H255.293L262.202 29.4862H266.729ZM268.17 29.4862H288.22V32.7496H268.17V29.4862ZM276.255 32.338H280.165V48.5078H276.255V32.338ZM294.973 40.5699V45.2445H309.643V48.5078H291.063V29.4862H309.614V32.7496H294.973V37.4829H306.968V40.5699H294.973Z" fill="white"/>
</svg>
