<svg width="1150" height="814" viewBox="0 0 1150 814" fill="none" xmlns="http://www.w3.org/2000/svg">
<path d="M465.488 675.15H720.975L743.027 796.122H442.313L465.488 675.15Z" fill="#F7F7F7"/>
<path d="M725.38 699.347L720.975 675.15H465.488L460.799 699.579L725.38 699.347Z" fill="#A9A8A8"/>
<path d="M725.419 699.567L721.001 675.331L465.449 675.344L460.76 699.812L725.419 699.567Z" fill="#AAA9A9"/>
<path d="M725.458 699.786L721.04 675.499L465.411 675.525L460.721 700.058L725.458 699.786Z" fill="#ABAAAA"/>
<path d="M725.497 699.993L721.066 675.68L465.372 675.719L460.67 700.291L725.497 699.993Z" fill="#ACABAB"/>
<path d="M725.535 700.213L721.091 675.848L465.333 675.9L460.631 700.537L725.535 700.213Z" fill="#ADACAC"/>
<path d="M725.574 700.42L721.13 676.029L465.307 676.081L460.592 700.769L725.574 700.42Z" fill="#AEADAD"/>
<path d="M725.613 700.64L721.156 676.21L465.269 676.275L460.54 701.015L725.613 700.64Z" fill="#AFAEAE"/>
<path d="M725.652 700.86L721.195 676.378L465.23 676.456L460.502 701.248L725.652 700.86Z" fill="#B0AFAF"/>
<path d="M725.69 701.067L721.221 676.559L465.191 676.637L460.45 701.493L725.69 701.067Z" fill="#B1B0B0"/>
<path d="M725.729 701.287L721.259 676.728L465.165 676.831L460.411 701.726L725.729 701.287Z" fill="#B2B1B1"/>
<path d="M725.768 701.506L721.285 676.908L465.126 677.012L460.373 701.959L725.768 701.506Z" fill="#B3B2B2"/>
<path d="M725.807 701.713L721.324 677.077L465.088 677.206L460.321 702.205L725.807 701.713Z" fill="#B4B3B3"/>
<path d="M725.845 701.933L721.35 677.258L465.049 677.387L460.282 702.438L725.845 701.933Z" fill="#B5B4B4"/>
<path d="M725.884 702.153L721.388 677.426L465.023 677.568L460.243 702.683L725.884 702.153Z" fill="#B6B5B5"/>
<path d="M725.936 702.36L721.414 677.607L464.984 677.762L460.192 702.916L725.936 702.36Z" fill="#B7B6B6"/>
<path d="M725.975 702.58L721.453 677.775L464.946 677.943L460.153 703.162L725.975 702.58Z" fill="#B8B7B7"/>
<path d="M726.013 702.787L721.479 677.956L464.907 678.124L460.101 703.395L726.013 702.787Z" fill="#B9B8B8"/>
<path d="M726.052 703.007L721.518 678.124L464.881 678.318L460.062 703.64L726.052 703.007Z" fill="#BAB9B9"/>
<path d="M726.091 703.226L721.544 678.305L464.842 678.499L460.024 703.873L726.091 703.226Z" fill="#BBBABA"/>
<path d="M726.13 703.433L721.569 678.473L464.804 678.693L459.972 704.119L726.13 703.433Z" fill="#BCBBBB"/>
<path d="M726.168 703.653L721.608 678.654L464.765 678.874L459.933 704.351L726.168 703.653Z" fill="#BDBCBC"/>
<path d="M726.207 703.873L721.634 678.823L464.739 679.055L459.895 704.584L726.207 703.873Z" fill="#BDBDBD"/>
<path d="M726.246 704.08L721.673 679.004L464.7 679.249L459.843 704.83L726.246 704.08Z" fill="#BEBEBE"/>
<path d="M726.285 704.3L721.699 679.185L464.661 679.43L459.804 705.063L726.285 704.3Z" fill="#BFBFBF"/>
<path d="M726.323 704.52L721.737 679.353L464.623 679.611L459.765 705.309L726.323 704.52Z" fill="#C0C0C0"/>
<path d="M726.362 704.727L721.763 679.534L464.597 679.806L459.714 705.542L726.362 704.727Z" fill="#C1C1C1"/>
<path d="M726.401 704.946L721.802 679.702L464.558 679.986L459.675 705.787L726.401 704.946Z" fill="#C2C2C2"/>
<path d="M726.44 705.153L721.828 679.883L464.519 680.18L459.623 706.02L726.44 705.153Z" fill="#C3C3C3"/>
<path d="M726.478 705.373L721.866 680.051L464.481 680.362L459.585 706.266L726.478 705.373Z" fill="#C4C4C4"/>
<path d="M726.517 705.593L721.892 680.232L464.455 680.543L459.546 706.498L726.517 705.593Z" fill="#C5C5C5"/>
<path d="M726.556 705.8L721.931 680.4L464.416 680.737L459.494 706.744L726.556 705.8Z" fill="#C6C6C6"/>
<path d="M726.595 706.02L721.957 680.581L464.377 680.918L459.455 706.977L726.595 706.02Z" fill="#C7C7C7"/>
<path d="M726.633 706.24L721.996 680.75L464.338 681.112L459.417 707.21L726.633 706.24Z" fill="#C8C8C8"/>
<path d="M726.672 706.447L722.021 680.931L464.313 681.293L459.365 707.456L726.672 706.447Z" fill="#C9C9C9"/>
<path d="M726.711 706.666L722.06 681.099L464.274 681.474L459.326 707.688L726.711 706.666Z" fill="#CACACA"/>
<path d="M726.75 706.874L722.086 681.28L464.235 681.668L459.274 707.934L726.75 706.874Z" fill="#CBCBCB"/>
<path d="M726.788 707.093L722.112 681.448L464.196 681.849L459.236 708.167L726.788 707.093Z" fill="#CCCCCC"/>
<path d="M726.827 707.313L722.151 681.629L464.158 682.03L459.197 708.412L726.827 707.313Z" fill="#CDCDCD"/>
<path d="M726.866 707.52L722.177 681.797L464.132 682.224L459.145 708.645L726.866 707.52Z" fill="#CECECE"/>
<path d="M726.905 707.74L722.215 681.978L464.093 682.405L459.107 708.891L726.905 707.74Z" fill="#CFCFCF"/>
<path d="M726.943 707.96L722.241 682.159L464.054 682.599L459.068 709.124L726.943 707.96Z" fill="#D0CFCF"/>
<path d="M726.982 708.167L722.28 682.327L464.016 682.78L459.016 709.369L726.982 708.167Z" fill="#D1D0D0"/>
<path d="M727.034 708.387L722.306 682.508L463.99 682.961L458.977 709.602L727.034 708.387Z" fill="#D2D1D1"/>
<path d="M727.073 708.606L722.344 682.677L463.951 683.155L458.939 709.835L727.073 708.606Z" fill="#D3D2D2"/>
<path d="M727.111 708.813L722.37 682.857L463.912 683.336L458.887 710.081L727.111 708.813Z" fill="#D4D3D3"/>
<path d="M727.15 709.033L722.409 683.026L463.873 683.517L458.848 710.314L727.15 709.033Z" fill="#D5D4D4"/>
<path d="M727.189 709.24L722.435 683.207L463.848 683.711L458.796 710.559L727.189 709.24Z" fill="#D6D5D5"/>
<path d="M727.228 709.46L722.474 683.375L463.809 683.892L458.758 710.792L727.228 709.46Z" fill="#D7D6D6"/>
<path d="M727.266 709.68L722.5 683.556L463.77 684.086L458.719 711.038L727.266 709.68Z" fill="#D8D7D7"/>
<path d="M727.305 709.887L722.538 683.724L463.731 684.267L458.667 711.27L727.305 709.887Z" fill="#D9D8D8"/>
<path d="M727.344 710.107L722.564 683.905L463.705 684.448L458.629 711.516L727.344 710.107Z" fill="#DAD9D9"/>
<path d="M727.383 710.327L722.59 684.073L463.667 684.642L458.59 711.749L727.383 710.327Z" fill="#DBDADA"/>
<path d="M727.421 710.533L722.629 684.254L463.628 684.823L458.538 711.995L727.421 710.533Z" fill="#DCDBDB"/>
<path d="M727.46 710.753L722.655 684.422L463.589 685.004L458.499 712.228L727.46 710.753Z" fill="#DDDCDC"/>
<path d="M727.499 710.973L722.693 684.604L463.563 685.198L458.448 712.461L727.499 710.973Z" fill="#DEDDDD"/>
<path d="M727.538 711.18L722.719 684.771L463.525 685.379L458.409 712.706L727.538 711.18Z" fill="#DFDEDE"/>
<path d="M727.576 711.4L722.758 684.953L463.486 685.573L458.37 712.939L727.576 711.4Z" fill="#E0DFDF"/>
<path d="M727.615 711.607L722.784 685.121L463.447 685.755L458.319 713.185L727.615 711.607Z" fill="#E1E0E0"/>
<path d="M727.654 711.827L722.823 685.302L463.421 685.935L458.28 713.417L727.654 711.827Z" fill="#E2E1E1"/>
<path d="M727.693 712.047L722.848 685.483L463.383 686.13L458.241 713.663L727.693 712.047Z" fill="#E3E2E2"/>
<path d="M727.731 712.253L722.887 685.651L463.344 686.31L458.189 713.896L727.731 712.253Z" fill="#E3E3E3"/>
<path d="M727.77 712.473L722.913 685.832L463.305 686.492L458.151 714.142L727.77 712.473Z" fill="#E4E4E4"/>
<path d="M727.809 712.693L722.952 686L463.279 686.686L458.112 714.375L727.809 712.693Z" fill="#E5E5E5"/>
<path d="M727.848 712.9L722.978 686.181L463.24 686.867L458.06 714.62L727.848 712.9Z" fill="#E6E6E6"/>
<path d="M727.887 713.12L723.016 686.349L463.202 687.061L458.021 714.853L727.887 713.12Z" fill="#E7E7E7"/>
<path d="M727.925 713.327L723.042 686.53L463.163 687.242L457.97 715.086L727.925 713.327Z" fill="#E8E8E8"/>
<path d="M727.964 713.547L723.081 686.698L463.137 687.423L457.931 715.331L727.964 713.547Z" fill="#E9E9E9"/>
<path d="M728.003 713.767L723.107 686.88L463.098 687.617L457.892 715.564L728.003 713.767Z" fill="#EAEAEA"/>
<path d="M728.042 713.973L723.133 687.048L463.06 687.798L457.841 715.81L728.042 713.973Z" fill="#EBEBEB"/>
<path d="M728.08 714.193L723.171 687.229L463.021 687.992L457.802 716.043L728.08 714.193Z" fill="#ECECEC"/>
<path d="M728.132 714.413L723.197 687.397L462.995 688.173L457.763 716.288L728.132 714.413Z" fill="#EDEDED"/>
<path d="M728.171 714.62L723.236 687.578L462.956 688.354L457.711 716.521L728.171 714.62Z" fill="#EEEEEE"/>
<path d="M728.209 714.84L723.262 687.746L462.917 688.548L457.673 716.767L728.209 714.84Z" fill="#EFEFEF"/>
<path d="M728.248 715.06L723.3 687.927L462.879 688.729L457.621 717L728.248 715.06Z" fill="#F0F0F0"/>
<path d="M728.287 715.267L723.326 688.095L462.84 688.91L457.582 717.245L728.287 715.267Z" fill="#F1F1F1"/>
<path d="M728.326 715.487L723.365 688.276L462.814 689.104L457.543 717.478L728.326 715.487Z" fill="#F2F2F2"/>
<path d="M728.364 715.693L723.391 688.457L462.775 689.285L457.492 717.711L728.364 715.693Z" fill="#F3F3F3"/>
<path d="M728.403 715.913L723.43 688.625L462.737 689.479L457.453 717.957L728.403 715.913Z" fill="#F4F4F4"/>
<path d="M728.442 716.133L723.455 688.807L462.698 689.66L457.414 718.19L728.442 716.133Z" fill="#F5F5F5"/>
<path d="M728.481 716.34L723.494 688.975L462.672 689.841L457.363 718.435L728.481 716.34Z" fill="#F6F6F6"/>
<path d="M728.519 716.56L723.52 689.156L462.633 690.035L457.324 718.668L728.519 716.56Z" fill="#F7F7F7"/>
<path d="M445.671 778.611L442.313 796.122H743.027L737.369 777.512L445.671 778.611Z" fill="#C4C4C4"/>
<path d="M445.71 778.404L442.338 795.992L742.988 795.979L737.369 777.331L445.71 778.404Z" fill="#C5C5C5"/>
<path d="M445.749 778.184L442.364 795.876L742.962 795.837L737.381 777.162L445.749 778.184Z" fill="#C6C6C6"/>
<path d="M445.788 777.977L442.377 795.747L742.936 795.682L737.394 776.981L445.788 777.977Z" fill="#C7C7C7"/>
<path d="M445.826 777.757L442.403 795.63L742.911 795.54L737.407 776.8L445.826 777.757Z" fill="#C8C8C8"/>
<path d="M445.865 777.55L442.429 795.501L742.885 795.398L737.42 776.632L445.865 777.55Z" fill="#C9C9C9"/>
<path d="M445.917 777.331L442.455 795.385L742.859 795.255L737.433 776.451L445.917 777.331Z" fill="#CACACA"/>
<path d="M445.956 777.124L442.481 795.255L742.833 795.113L737.446 776.27L445.956 777.124Z" fill="#CBCBCB"/>
<path d="M445.994 776.904L442.506 795.139L742.807 794.971L737.459 776.102L445.994 776.904Z" fill="#CCCCCC"/>
<path d="M446.033 776.619L442.519 794.945L742.781 794.751L737.459 775.856L446.033 776.619Z" fill="#CDCDCD"/>
<path d="M446.072 776.4L442.545 794.816L742.756 794.609L737.472 775.662L446.072 776.4Z" fill="#CECECE"/>
<path d="M446.111 776.18L442.571 794.686L742.73 794.453L737.485 775.481L446.111 776.18Z" fill="#CFCFCF"/>
<path d="M446.162 775.96L442.597 794.544L742.704 794.298L737.498 775.3L446.162 775.96Z" fill="#D0D0D0"/>
<path d="M446.201 775.727L442.623 794.415L742.678 794.143L737.511 775.106L446.201 775.727Z" fill="#D1D1D1"/>
<path d="M446.24 775.507L442.648 794.285L742.652 794.001L737.524 774.925L446.24 775.507Z" fill="#D2D2D2"/>
<path d="M446.279 775.287L442.661 794.156L742.626 793.846L737.536 774.744L446.279 775.287Z" fill="#D3D3D3"/>
<path d="M446.317 775.067L442.687 794.027L742.601 793.69L737.549 774.563L446.317 775.067Z" fill="#D4D4D4"/>
<path d="M446.356 774.847L442.713 793.897L742.575 793.548L737.549 774.369L446.356 774.847Z" fill="#D5D5D5"/>
<path d="M446.408 774.628L442.739 793.768L742.549 793.393L737.562 774.188L446.408 774.628Z" fill="#D6D6D6"/>
<path d="M446.446 774.395L442.765 793.639L742.523 793.238L737.575 774.007L446.446 774.395Z" fill="#D7D7D7"/>
<path d="M446.485 774.175L442.778 793.509L742.497 793.083L737.588 773.813L446.485 774.175Z" fill="#D8D8D8"/>
<path d="M446.524 773.955L442.803 793.367L742.471 792.94L737.601 773.632L446.524 773.955Z" fill="#D9D9D9"/>
<path d="M446.563 773.735L442.829 793.238L742.445 792.785L737.614 773.451L446.563 773.735Z" fill="#DADADA"/>
<path d="M446.602 773.515L442.855 793.109L742.42 792.63L737.627 773.27L446.602 773.515Z" fill="#DBDBDB"/>
<path d="M446.653 773.296L442.881 792.979L742.394 792.475L737.64 773.076L446.653 773.296Z" fill="#DCDCDC"/>
<path d="M446.692 773.076L442.907 792.85L742.368 792.333L737.64 772.895L446.692 773.076Z" fill="#DDDDDD"/>
<path d="M446.731 772.843L442.92 792.72L742.342 792.177L737.653 772.714L446.731 772.843Z" fill="#DDDDDD"/>
<path d="M446.769 772.623L442.946 792.591L742.316 792.022L737.666 772.52L446.769 772.623Z" fill="#DEDEDE"/>
<path d="M446.808 772.403L442.971 792.462L742.29 791.88L737.679 772.339L446.808 772.403Z" fill="#DFDFDF"/>
<path d="M446.847 772.183L442.997 792.332L742.265 791.725L737.691 772.157L446.847 772.183Z" fill="#E0E0E0"/>
<path d="M446.899 771.963L443.023 792.203L742.239 791.582L737.704 771.976L446.899 771.963Z" fill="#E1E1E1"/>
<path d="M446.937 771.77L443.036 792.087L742.213 791.44L737.717 771.808L446.937 771.77Z" fill="#E2E2E2"/>
<path d="M446.976 771.562L443.062 791.983L742.187 791.311L737.73 771.64L446.976 771.562Z" fill="#E3E3E3"/>
<path d="M447.015 771.356L443.088 791.867L742.161 791.182L737.743 771.472L447.015 771.356Z" fill="#E4E4E4"/>
<path d="M447.054 771.149L443.114 791.75L742.135 791.039L737.743 771.317L447.054 771.149Z" fill="#E5E5E5"/>
<path d="M447.105 770.955L443.139 791.634L742.11 790.91L737.756 771.149L447.105 770.955Z" fill="#E6E6E6"/>
<path d="M447.144 770.748L443.165 791.531L742.084 790.781L737.769 770.981L447.144 770.748Z" fill="#E7E7E7"/>
<path d="M447.183 770.541L443.178 791.414L742.058 790.638L737.782 770.813L447.183 770.541Z" fill="#E8E8E8"/>
<path d="M447.222 770.347L443.204 791.298L742.019 790.509L737.795 770.644L447.222 770.347Z" fill="#E9E9E9"/>
<path d="M447.26 770.14L443.23 791.194L741.993 790.38L737.808 770.476L447.26 770.14Z" fill="#EAEAEA"/>
<path d="M447.299 769.933L443.256 791.078L741.967 790.25L737.821 770.308L447.299 769.933Z" fill="#EBEBEB"/>
<path d="M447.351 769.726L443.282 790.961L741.942 790.108L737.834 770.153L447.351 769.726Z" fill="#ECECEC"/>
<path d="M447.39 769.532L443.294 790.858L741.916 789.979L737.834 769.985L447.39 769.532Z" fill="#EDEDED"/>
<path d="M447.428 769.325L443.32 790.742L741.89 789.849L737.846 769.817L447.428 769.325Z" fill="#EEEEEE"/>
<path d="M447.467 769.118L443.346 790.625L741.864 789.707L737.859 769.649L447.467 769.118Z" fill="#EFEFEF"/>
<path d="M447.506 768.924L443.372 790.522L741.838 789.578L737.872 769.48L447.506 768.924Z" fill="#F0F0F0"/>
<path d="M447.545 768.782L443.398 790.47L741.812 789.513L737.885 769.377L447.545 768.782Z" fill="#F1F1F1"/>
<path d="M447.596 768.562L443.424 790.341L741.787 789.371L737.898 769.209L447.596 768.562Z" fill="#F2F2F2"/>
<path d="M447.635 768.355L443.437 790.224L741.761 789.229L737.911 769.028L447.635 768.355Z" fill="#F3F3F3"/>
<path d="M447.674 768.135L443.462 790.095L741.735 789.073L737.924 768.847L447.674 768.135Z" fill="#F4F4F4"/>
<path d="M447.713 767.928L443.488 789.979L741.709 788.931L737.924 768.679L447.713 767.928Z" fill="#F5F5F5"/>
<path d="M447.751 767.709L443.514 789.849L741.683 788.789L737.937 768.498L447.751 767.709Z" fill="#F6F6F6"/>
<path d="M447.79 767.502L443.54 789.733L741.657 788.647L737.95 768.316L447.79 767.502Z" fill="#F7F7F7"/>
<path d="M779.521 802.64L743.014 796.109H442.313L405.805 802.64C404.681 802.847 403.868 803.817 403.868 804.968V812.262C403.868 813.219 404.643 813.982 405.586 813.982H779.741C780.697 813.982 781.459 813.206 781.459 812.262V804.968C781.459 803.83 780.645 802.847 779.521 802.64Z" fill="#F6F4F4"/>
<path d="M770.181 800.972L743.027 796.122H442.313L415.145 800.972H770.181Z" fill="#BDBCBC"/>
<path d="M441.68 796.225C441.68 796.225 433.373 797.725 433.373 797.738L414.951 801.152C414.951 801.152 417.393 801.178 417.419 801.178C417.419 801.178 770.349 801.178 770.375 801.152L751.953 797.738C751.953 797.738 743.66 796.225 743.647 796.225H740.947C740.947 796.225 441.731 796.225 441.68 796.225Z" fill="#BEBDBD"/>
<path d="M441.06 796.342C441.06 796.342 432.856 797.842 432.856 797.881L414.758 801.372C414.758 801.372 417.173 801.437 417.212 801.437C417.212 801.437 770.517 801.437 770.569 801.372L752.47 797.881C752.47 797.881 744.306 796.354 744.267 796.342L741.567 796.316C741.567 796.316 441.163 796.316 441.047 796.342H441.06Z" fill="#BFBEBE"/>
<path d="M440.427 796.458C440.427 796.458 432.34 797.945 432.34 798.01L414.564 801.566C414.564 801.566 416.954 801.657 417.005 801.657C417.005 801.657 770.685 801.657 770.776 801.566L753 798.01C753 798.01 744.977 796.471 744.913 796.458L742.2 796.432C742.2 796.432 440.607 796.432 440.439 796.458H440.427Z" fill="#C0BFBF"/>
<path d="M439.794 796.574C439.716 796.587 431.823 798.062 431.823 798.139L414.37 801.76C414.37 801.825 416.734 801.877 416.799 801.877C416.799 801.877 770.853 801.877 770.969 801.76L753.517 798.139C753.517 798.062 745.623 796.587 745.546 796.574L742.82 796.536C742.82 796.536 440.039 796.536 439.806 796.574H439.794Z" fill="#C1C0C0"/>
<path d="M439.161 796.678C439.07 796.691 431.293 798.152 431.293 798.256L414.163 801.941C414.163 802.019 416.489 802.084 416.579 802.084C416.579 802.084 770.995 802.084 771.15 801.941L754.02 798.256C754.02 798.152 746.256 796.704 746.153 796.678L743.414 796.626C743.414 796.626 439.445 796.626 439.148 796.678H439.161Z" fill="#C2C1C1"/>
<path d="M438.54 796.794C438.424 796.82 430.789 798.269 430.789 798.385L413.983 802.148C413.983 802.252 416.282 802.329 416.385 802.329C416.385 802.329 771.176 802.329 771.357 802.148L754.55 798.385C754.55 798.269 746.915 796.82 746.799 796.794L744.047 796.729C744.047 796.729 438.889 796.729 438.54 796.794Z" fill="#C3C2C2"/>
<path d="M437.907 796.911C437.778 796.936 430.273 798.372 430.273 798.514L413.789 802.342C413.789 802.459 416.062 802.549 416.179 802.549C416.179 802.549 771.344 802.549 771.551 802.342L755.067 798.514C755.067 798.372 747.561 796.936 747.432 796.911L744.667 796.833C744.667 796.833 438.321 796.833 437.907 796.911Z" fill="#C4C3C3"/>
<path d="M437.274 797.014C437.119 797.04 429.743 798.476 429.743 798.631L413.582 802.523C413.582 802.653 415.83 802.756 415.959 802.756C415.959 802.756 771.499 802.756 771.731 802.523L755.571 798.631C755.571 798.476 748.194 797.04 748.039 797.014L745.262 796.937C745.262 796.937 437.727 796.937 437.262 797.014H437.274Z" fill="#C5C4C4"/>
<path d="M436.654 797.13C436.486 797.156 429.239 798.579 429.239 798.76L413.401 802.717C413.401 802.86 415.61 802.989 415.765 802.989C415.765 802.989 771.68 802.989 771.938 802.717L756.1 798.76C756.1 798.579 748.866 797.156 748.685 797.13L745.895 797.04C745.895 797.04 437.158 797.04 436.641 797.13H436.654Z" fill="#C6C5C5"/>
<path d="M436.021 797.247C435.828 797.286 428.722 798.695 428.722 798.889L413.207 802.924C413.207 803.092 415.391 803.222 415.559 803.222C415.559 803.222 771.835 803.222 772.132 802.924L756.617 798.889C756.617 798.695 749.512 797.273 749.318 797.247L746.515 797.143C746.515 797.143 436.59 797.143 436.021 797.247Z" fill="#C7C6C6"/>
<path d="M435.388 797.35C435.182 797.389 428.193 798.799 428.193 799.006L413.001 803.105C413.001 803.286 415.158 803.429 415.339 803.429C415.339 803.429 771.99 803.429 772.326 803.105L757.134 799.006C757.134 798.786 750.158 797.389 749.938 797.35L747.135 797.234C747.135 797.234 436.021 797.234 435.388 797.35Z" fill="#C8C7C7"/>
<path d="M434.755 797.467C434.523 797.505 427.676 798.902 427.676 799.135L412.807 803.299C412.807 803.493 414.926 803.661 415.132 803.661C415.132 803.661 772.158 803.661 772.519 803.299L757.65 799.135C757.65 798.902 750.804 797.505 750.571 797.467L747.755 797.337C747.755 797.337 435.453 797.337 434.768 797.467H434.755Z" fill="#C9C8C8"/>
<path d="M434.135 797.583C433.89 797.622 427.172 799.019 427.172 799.277L412.626 803.519C412.626 803.726 414.719 803.907 414.939 803.907C414.939 803.907 772.339 803.907 772.726 803.519L758.18 799.277C758.18 799.019 751.463 797.635 751.217 797.583L748.388 797.454C748.388 797.454 434.897 797.454 434.148 797.583H434.135Z" fill="#CAC9C9"/>
<path d="M433.502 797.7C433.231 797.751 426.643 799.122 426.643 799.407L412.419 803.713C412.419 803.946 414.486 804.127 414.719 804.127C414.719 804.127 772.494 804.127 772.907 803.713L758.684 799.407C758.684 799.135 752.095 797.751 751.824 797.7L748.982 797.557C748.982 797.557 434.303 797.557 433.489 797.7H433.502Z" fill="#CBCACA"/>
<path d="M432.869 797.803C432.585 797.855 426.126 799.225 426.126 799.523L412.226 803.894C412.226 804.14 414.267 804.334 414.512 804.334C414.512 804.334 772.662 804.334 773.101 803.894L759.201 799.523C759.201 799.225 752.741 797.855 752.457 797.803L749.602 797.648C749.602 797.648 433.735 797.648 432.869 797.803Z" fill="#CCCACA"/>
<path d="M432.249 797.919C431.939 797.971 425.622 799.329 425.622 799.652L412.045 804.088C412.045 804.347 414.047 804.567 414.318 804.567C414.318 804.567 772.829 804.567 773.307 804.088L759.73 799.652C759.73 799.342 753.413 797.971 753.103 797.919L750.235 797.751C750.235 797.751 433.179 797.751 432.249 797.919Z" fill="#CDCBCB"/>
<path d="M431.616 798.036C431.293 798.1 425.092 799.445 425.092 799.782L411.838 804.295C411.838 804.58 413.815 804.8 414.099 804.8C414.099 804.8 772.985 804.8 773.488 804.295L760.234 799.782C760.234 799.445 754.046 798.1 753.71 798.036L750.83 797.855C750.83 797.855 432.585 797.855 431.603 798.036H431.616Z" fill="#CECCCC"/>
<path d="M430.983 798.139C430.634 798.204 424.576 799.549 424.576 799.898L411.644 804.476C411.644 804.774 413.595 805.007 413.892 805.007C413.892 805.007 773.152 805.007 773.682 804.476L760.751 799.898C760.751 799.549 754.692 798.204 754.343 798.139L751.45 797.958C751.45 797.958 432.017 797.958 430.97 798.139H430.983Z" fill="#CFCDCD"/>
<path d="M430.35 798.256C429.988 798.32 424.046 799.652 424.046 800.027L411.438 804.67C411.438 804.981 413.363 805.239 413.673 805.239C413.673 805.239 773.307 805.239 773.876 804.67L761.268 800.027C761.268 799.652 755.338 798.32 754.963 798.256L752.057 798.062C752.057 798.062 431.435 798.062 430.337 798.256H430.35Z" fill="#D0CECE"/>
<path d="M429.73 798.372C429.343 798.437 423.542 799.769 423.542 800.157L411.257 804.864C411.257 805.187 413.143 805.459 413.479 805.459C413.479 805.459 773.488 805.459 774.083 804.864L761.797 800.157C761.797 799.769 755.997 798.437 755.609 798.372L752.703 798.165C752.703 798.165 430.893 798.165 429.73 798.372Z" fill="#D1CFCF"/>
<path d="M429.097 798.475C428.697 798.553 423.025 799.859 423.025 800.273L411.063 805.058C411.063 805.407 412.923 805.679 413.272 805.679C413.272 805.679 773.656 805.679 774.276 805.058L762.314 800.273C762.314 799.859 756.643 798.54 756.242 798.475L753.323 798.256C753.323 798.256 430.324 798.256 429.11 798.475H429.097Z" fill="#D2D0D0"/>
<path d="M428.464 798.592C428.038 798.67 422.496 799.976 422.496 800.403L410.856 805.252C410.856 805.614 412.691 805.912 413.052 805.912C413.052 805.912 773.798 805.912 774.457 805.252L762.818 800.403C762.818 799.963 757.276 798.67 756.849 798.592L753.917 798.359C753.917 798.359 429.717 798.359 428.451 798.592H428.464Z" fill="#D3D1D1"/>
<path d="M427.831 798.708C427.392 798.786 421.979 800.079 421.979 800.532L410.663 805.446C410.663 805.821 412.458 806.132 412.846 806.132C412.846 806.132 773.966 806.131 774.651 805.446L763.335 800.532C763.335 800.079 757.935 798.786 757.482 798.708L754.537 798.475C754.537 798.475 429.149 798.475 427.831 798.708Z" fill="#D4D2D2"/>
<path d="M427.211 798.825C426.746 798.902 421.475 800.195 421.475 800.674L410.482 805.653C410.482 806.041 412.252 806.364 412.652 806.364C412.652 806.364 774.147 806.364 774.858 805.653L763.864 800.674C763.864 800.195 758.593 798.915 758.128 798.825L755.17 798.579C755.17 798.579 428.593 798.579 427.211 798.825Z" fill="#D5D3D3"/>
<path d="M426.578 798.928C426.1 799.019 420.946 800.299 420.946 800.79L410.275 805.847C410.275 806.261 412.019 806.584 412.432 806.584C412.432 806.584 774.302 806.584 775.039 805.847L764.368 800.79C764.368 800.299 759.227 799.019 758.736 798.928L755.764 798.669C755.764 798.669 427.999 798.669 426.552 798.928H426.578Z" fill="#D6D4D4"/>
<path d="M425.945 799.044C425.441 799.135 420.429 800.402 420.429 800.92L410.081 806.041C410.081 806.468 411.799 806.817 412.226 806.817C412.226 806.817 774.47 806.817 775.232 806.041L764.885 800.92C764.885 800.402 759.872 799.135 759.369 799.044L756.384 798.773C756.384 798.773 427.431 798.773 425.932 799.044H425.945Z" fill="#D7D5D5"/>
<path d="M425.325 799.161C424.808 799.251 419.925 800.519 419.925 801.049L409.9 806.235C409.9 806.675 411.58 807.037 412.032 807.037C412.032 807.037 774.651 807.037 775.452 806.235L765.427 801.049C765.427 800.519 760.544 799.251 760.027 799.161L757.03 798.876C757.03 798.876 426.888 798.876 425.325 799.161Z" fill="#D8D6D6"/>
<path d="M424.692 799.264C424.149 799.368 419.395 800.609 419.395 801.165L409.707 806.416C409.707 806.882 411.36 807.244 411.825 807.244C411.825 807.244 774.806 807.244 775.646 806.416L765.957 801.165C765.957 800.609 761.203 799.368 760.66 799.264L757.65 798.98C757.65 798.98 426.32 798.98 424.705 799.264H424.692Z" fill="#D9D7D7"/>
<path d="M424.059 799.381C423.503 799.484 418.879 800.726 418.879 801.295L409.513 806.623C409.513 807.102 411.141 807.489 411.619 807.489C411.619 807.489 774.974 807.49 775.84 806.623L766.474 801.295C766.474 800.726 761.849 799.484 761.293 799.381L758.27 799.083C758.27 799.083 425.751 799.083 424.072 799.381H424.059Z" fill="#DAD8D8"/>
<path d="M423.426 799.497C422.845 799.601 418.362 800.829 418.362 801.424L409.319 806.817C409.319 807.308 410.908 807.709 411.412 807.709C411.412 807.709 775.142 807.709 776.033 806.817L766.99 801.424C766.99 800.829 762.508 799.601 761.926 799.497L758.904 799.187C758.904 799.187 425.196 799.187 423.465 799.497H423.426Z" fill="#DAD9D9"/>
<path d="M422.806 799.601C422.212 799.704 417.845 800.933 417.845 801.541L409.125 806.998C409.125 807.502 410.688 807.916 411.205 807.916C411.205 807.916 775.31 807.916 776.227 806.998L767.507 801.541C767.507 800.933 763.154 799.704 762.547 799.601L759.511 799.277C759.511 799.277 424.614 799.277 422.819 799.601H422.806Z" fill="#DBDADA"/>
<path d="M422.173 799.717C421.553 799.833 417.328 801.036 417.328 801.67L408.931 807.192C408.931 807.722 410.469 808.149 410.998 808.149C410.998 808.149 775.478 808.149 776.421 807.192L768.024 801.67C768.024 801.036 763.8 799.82 763.18 799.717L760.131 799.381C760.131 799.381 424.046 799.381 422.199 799.717H422.173Z" fill="#DCDBDB"/>
<path d="M421.54 799.833C420.907 799.95 416.812 801.152 416.812 801.799L408.738 807.399C408.738 807.942 410.249 808.382 410.779 808.382C410.779 808.382 775.62 808.382 776.602 807.399L768.528 801.799C768.528 801.152 764.433 799.95 763.8 799.833L760.738 799.497C760.738 799.497 423.465 799.497 421.553 799.833H421.54Z" fill="#DDDCDC"/>
<path d="M420.92 799.95C420.261 800.066 416.295 801.269 416.295 801.928L408.544 807.593C408.544 808.149 410.017 808.602 410.572 808.602C410.572 808.602 775.788 808.602 776.795 807.593L769.044 801.928C769.044 801.256 765.078 800.066 764.42 799.95L761.345 799.601C761.345 799.601 422.883 799.601 420.92 799.95Z" fill="#DEDDDD"/>
<path d="M420.287 800.053C419.615 800.17 415.778 801.359 415.778 802.058L408.35 807.787C408.35 808.356 409.797 808.822 410.365 808.822C410.365 808.822 775.956 808.822 777.002 807.787L769.574 802.058C769.574 801.372 765.737 800.183 765.066 800.053L761.978 799.691C761.978 799.691 422.315 799.691 420.3 800.053H420.287Z" fill="#DFDEDE"/>
<path d="M419.654 800.17C418.956 800.299 415.249 801.476 415.249 802.187L408.143 807.994C408.143 808.589 409.565 809.067 410.146 809.067C410.146 809.067 776.111 809.067 777.183 807.994L770.078 802.187C770.078 801.476 766.37 800.299 765.673 800.17L762.572 799.795C762.572 799.795 421.721 799.795 419.641 800.17H419.654Z" fill="#E0DFDF"/>
<path d="M419.021 800.286C418.31 800.415 414.732 801.579 414.732 802.316L407.95 808.188C407.95 808.796 409.345 809.287 409.939 809.287C409.939 809.287 776.279 809.287 777.377 808.188L770.595 802.316C770.595 801.592 767.029 800.415 766.306 800.286L763.192 799.898C763.192 799.898 421.152 799.898 419.021 800.286Z" fill="#E1E0E0"/>
<path d="M418.401 800.389C417.664 800.519 414.228 801.683 414.228 802.433L407.769 808.369C407.769 808.99 409.125 809.494 409.745 809.494C409.745 809.494 776.46 809.494 777.583 808.369L771.124 802.433C771.124 801.683 767.688 800.519 766.952 800.389L763.825 800.001C763.825 800.001 420.597 800.001 418.401 800.389Z" fill="#E2E1E1"/>
<path d="M417.768 800.506C417.018 800.635 413.698 801.786 413.698 802.562L407.562 808.563C407.562 809.197 408.893 809.727 409.526 809.727C409.526 809.727 776.602 809.727 777.764 808.563L771.628 802.562C771.628 801.799 768.321 800.648 767.559 800.506L764.433 800.105C764.433 800.105 420.015 800.105 417.768 800.506Z" fill="#E3E2E2"/>
<path d="M417.135 800.622C416.36 800.765 413.182 801.903 413.182 802.692L407.368 808.77C407.368 809.429 408.673 809.96 409.319 809.96C409.319 809.96 776.77 809.96 777.958 808.77L772.145 802.692C772.145 801.903 768.967 800.765 768.192 800.622L765.053 800.208C765.053 800.208 419.447 800.209 417.135 800.622Z" fill="#E4E3E3"/>
<path d="M416.515 800.726C415.727 800.868 412.678 802.006 412.678 802.808L407.188 808.951C407.188 809.624 408.454 810.167 409.125 810.167C409.125 810.167 776.95 810.167 778.165 808.951L772.674 802.808C772.674 802.006 769.626 800.868 768.838 800.726L765.686 800.299C765.686 800.299 418.892 800.299 416.527 800.726H416.515Z" fill="#E5E4E4"/>
<path d="M415.882 800.842C415.068 800.984 412.148 802.109 412.148 802.937L406.981 809.145C406.981 809.83 408.221 810.399 408.906 810.399C408.906 810.399 777.105 810.399 778.346 809.145L773.178 802.937C773.178 802.109 770.259 800.984 769.445 800.842L766.28 800.402C766.28 800.402 418.297 800.402 415.869 800.842H415.882Z" fill="#E6E5E5"/>
<path d="M415.249 800.959C414.422 801.114 411.631 802.226 411.631 803.067L406.787 809.339C406.787 810.05 408.001 810.619 408.699 810.619C408.699 810.619 777.273 810.619 778.552 809.339L773.708 803.067C773.708 802.213 770.918 801.101 770.091 800.959L766.913 800.519C766.913 800.519 417.742 800.519 415.262 800.959H415.249Z" fill="#E7E6E6"/>
<path d="M414.616 801.075C413.763 801.23 411.115 802.329 411.115 803.196L406.593 809.546C406.593 810.27 407.782 810.852 408.492 810.852C408.492 810.852 777.441 810.852 778.746 809.546L774.225 803.196C774.225 802.329 771.576 801.217 770.724 801.075L767.533 800.622C767.533 800.622 417.173 800.622 414.628 801.075H414.616Z" fill="#E8E6E6"/>
<path d="M413.996 801.178C413.13 801.334 410.598 802.433 410.598 803.312L406.4 809.727C406.4 810.464 407.549 811.059 408.286 811.059C408.286 811.059 777.596 811.059 778.94 809.727L774.741 803.312C774.741 802.42 772.222 801.334 771.344 801.178L768.14 800.713C768.14 800.713 416.592 800.713 413.996 801.178Z" fill="#E9E7E7"/>
<path d="M413.363 801.295C412.471 801.45 410.081 802.536 410.081 803.442L406.206 809.921C406.206 810.671 407.33 811.292 408.079 811.292C408.079 811.292 777.764 811.292 779.134 809.921L775.258 803.442C775.258 802.536 772.868 801.45 771.977 801.295L768.76 800.816C768.76 800.816 416.024 800.816 413.363 801.295Z" fill="#EAE8E8"/>
<path d="M412.729 801.411C411.825 801.579 409.565 802.653 409.565 803.584L406.012 810.128C406.012 810.904 407.11 811.524 407.872 811.524C407.872 811.524 777.932 811.524 779.327 810.128L775.775 803.584C775.775 802.653 773.514 801.579 772.61 801.411L769.38 800.92C769.38 800.92 415.455 800.92 412.729 801.411Z" fill="#EBE9E9"/>
<path d="M412.097 801.515C411.166 801.683 409.035 802.756 409.035 803.7L405.805 810.322C405.805 811.111 406.865 811.744 407.653 811.744C407.653 811.744 778.087 811.744 779.508 810.322L776.279 803.7C776.279 802.756 774.147 801.683 773.217 801.515L769.987 801.023C769.987 801.023 414.861 801.023 412.097 801.515Z" fill="#ECEAEA"/>
<path d="M411.476 801.631C410.533 801.799 408.531 802.86 408.531 803.83L405.624 810.516C405.624 811.318 406.658 811.977 407.459 811.977C407.459 811.977 778.268 811.977 779.715 810.516L776.808 803.83C776.808 802.86 774.806 801.799 773.863 801.631L770.62 801.127C770.62 801.127 414.306 801.127 411.476 801.631Z" fill="#EDEBEB"/>
<path d="M410.843 801.747C409.875 801.915 408.014 802.976 408.014 803.959L405.431 810.71C405.431 811.524 406.438 812.197 407.252 812.197C407.252 812.197 778.423 812.197 779.909 810.71L777.325 803.959C777.325 802.976 775.452 801.928 774.483 801.747L771.228 801.23C771.228 801.23 413.724 801.23 410.843 801.747Z" fill="#EEECEC"/>
<path d="M410.21 801.851C409.229 802.032 407.485 803.066 407.485 804.075L405.224 810.891C405.224 811.731 406.206 812.404 407.033 812.404C407.033 812.404 778.578 812.404 780.09 810.891L777.829 804.075C777.829 803.066 776.098 802.032 775.103 801.851L771.835 801.321C771.835 801.321 413.143 801.321 410.198 801.851H410.21Z" fill="#EFEDED"/>
<path d="M409.59 801.967C408.583 802.148 406.981 803.183 406.981 804.205L405.043 811.098C405.043 811.951 405.986 812.637 406.839 812.637C406.839 812.637 778.759 812.637 780.309 811.098L778.372 804.205C778.372 803.183 776.77 802.148 775.762 801.967L772.481 801.424C772.481 801.424 412.6 801.424 409.603 801.967H409.59Z" fill="#F0EEEE"/>
<path d="M408.957 802.084C407.937 802.265 406.451 803.286 406.451 804.334L404.836 811.292C404.836 812.158 405.754 812.869 406.619 812.869C406.619 812.869 778.914 812.87 780.49 811.292L778.875 804.334C778.875 803.286 777.403 802.265 776.369 802.084L773.075 801.541C773.075 801.541 412.006 801.541 408.944 802.084H408.957Z" fill="#F1EFEF"/>
<path d="M408.324 802.2C407.278 802.381 405.934 803.403 405.934 804.463L404.643 811.486C404.643 812.378 405.534 813.089 406.412 813.089C406.412 813.089 779.082 813.089 780.684 811.486L779.392 804.463C779.392 803.403 778.049 802.381 777.002 802.2L773.695 801.644C773.695 801.644 411.438 801.644 408.324 802.2Z" fill="#F2F0F0"/>
<path d="M407.691 802.303C406.632 802.497 405.418 803.506 405.418 804.58L404.449 811.68C404.449 812.585 405.314 813.309 406.206 813.309C406.206 813.309 779.25 813.309 780.878 811.68L779.909 804.58C779.909 803.493 778.695 802.484 777.635 802.303L774.315 801.734C774.315 801.734 410.869 801.734 407.691 802.303Z" fill="#F3F1F1"/>
<path d="M407.071 802.42C405.986 802.614 404.901 803.61 404.901 804.709L404.255 811.874C404.255 812.792 405.082 813.542 405.999 813.542C405.999 813.542 779.405 813.542 781.071 811.874L780.426 804.709C780.426 803.61 779.34 802.614 778.255 802.42L774.922 801.838C774.922 801.838 410.288 801.838 407.045 802.42H407.071Z" fill="#F4F2F2"/>
<path d="M406.438 802.536C405.34 802.73 404.384 803.726 404.384 804.838L404.061 812.068C404.061 812.999 404.862 813.762 405.792 813.762C405.792 813.762 779.573 813.762 781.265 812.068L780.942 804.838C780.942 803.713 779.999 802.73 778.888 802.536L775.555 801.941C775.555 801.941 409.732 801.941 406.438 802.536Z" fill="#F5F3F3"/>
<path d="M779.521 802.64L776.175 802.045H409.164L405.818 802.64C404.694 802.847 403.88 803.817 403.88 804.968V812.262C403.88 813.219 404.656 813.982 405.599 813.982H779.754C780.71 813.982 781.472 813.206 781.472 812.262V804.968C781.472 803.83 780.658 802.847 779.534 802.64H779.521Z" fill="#F6F4F4"/>
<path d="M1120.09 0H28.9243C12.9442 0 0 14.0449 0 31.3876V644.124C0 661.454 12.9442 675.512 28.9243 675.512H1120.09C1136.06 675.512 1149.01 661.467 1149.01 644.124V31.3876C1149.01 14.0578 1136.07 0 1120.09 0Z" fill="url(#paint0_linear_443_407)"/>
<path d="M1115.64 5.40576H32.6318C16.8068 5.40576 3.96595 19.2437 3.96595 36.289V639.21C3.96595 656.268 16.7939 670.093 32.6318 670.093H1115.64C1131.48 670.093 1144.31 656.268 1144.31 639.21V36.289C1144.31 19.2308 1131.48 5.40576 1115.64 5.40576Z" fill="#1E1E1E"/>
<path d="M584.066 30.3012C589.21 30.3012 593.38 26.1265 593.38 20.9768C593.38 15.827 589.21 11.6523 584.066 11.6523C578.922 11.6523 574.752 15.827 574.752 20.9768C574.752 26.1265 578.922 30.3012 584.066 30.3012Z" stroke="#262626" stroke-width="0.07" stroke-miterlimit="10"/>
<defs>
<linearGradient id="paint0_linear_443_407" x1="574.506" y1="675.512" x2="574.506" y2="0" gradientUnits="userSpaceOnUse">
<stop stop-color="#EAEAEB"/>
<stop offset="0.51" stop-color="#AAAAAE"/>
<stop offset="0.66" stop-color="#C6C6C8"/>
<stop offset="1" stop-color="white"/>
</linearGradient>
</defs>
</svg>
